# xmcd CD database file
#
# Track frame offsets:
#	150
#	18660
#	38267
#	73505
#	89890
#	120432
#	141792
#	173717
#	197000
#	216312
#	243537
#	263195
#
# Disc length: 3872 seconds
#
# Revision: 5
# Processed by: cddbd v1.5.2PL0 Copyright (c) Steve Scherf et al.
# Submitted via: CDex 1.50
#
DISCID=ab0f1e0c
DTITLE=Ray Brown - Walk On - Disc1
DYEAR=2000
DGENRE=Jazz
TTITLE0=America The Beautiful
TTITLE1=Sunday
TTITLE2=Stella By Starlight
TTITLE3=Lined With A Groove
TTITLE4=Honeysuckle Rose
TTITLE5=Fried Pies
TTITLE6=You Are My Sunshine
TTITLE7=That's All
TTITLE8=Ray Brown Suite: Mvt. I
TTITLE9=Ray Brown Suite: Mvt. II
TTITLE10=Ray Brown Suite: Mvt. III
TTITLE11=Hello Girls
EXTD=The Final Ray Brown Trio Recording YEAR: 2000
EXTT0=
EXTT1=
EXTT2=
EXTT3=
EXTT4=
EXTT5=
EXTT6=
EXTT7=
EXTT8=
EXTT9=
EXTT10=
EXTT11=
PLAYORDER=
